<?xml version="1.0" encoding="UTF-8" standalone="no"?>
<!-- Created with Inkscape (http://www.inkscape.org/) -->

<svg
   width="48.2528mm"
   height="66.696365mm"
   viewBox="0 0 48.2528 66.696365"
   version="1.1"
   id="svg1"
   xml:space="preserve"
   xmlns:inkscape="http://www.inkscape.org/namespaces/inkscape"
   xmlns:sodipodi="http://sodipodi.sourceforge.net/DTD/sodipodi-0.dtd"
   xmlns="http://www.w3.org/2000/svg"
   xmlns:svg="http://www.w3.org/2000/svg"><sodipodi:namedview
     id="namedview1"
     pagecolor="#ffffff"
     bordercolor="#000000"
     borderopacity="0.25"
     inkscape:showpageshadow="2"
     inkscape:pageopacity="0.0"
     inkscape:pagecheckerboard="0"
     inkscape:deskcolor="#d1d1d1"
     inkscape:document-units="mm" /><defs
     id="defs1" /><g
     inkscape:label="Capa 1"
     inkscape:groupmode="layer"
     id="layer1"
     transform="translate(-3.2180573,-4.88473)"><g
       id="g26"
       transform="translate(16.204604,105.83632)"><path
         style="fill:#e0e6da"
         d="m -4.3819174,-34.504153 c -3.588962,-0.69084 -6.3202726,-3.77222 -7.7433926,-8.735844 -1.253379,-4.371596 -1.144993,-8.103091 0.366398,-12.614292 2.2138386,-6.607866 6.9383436,-11.432778 12.38041056,-12.643523 1.89922604,-0.422538 1.97929704,-0.420065 2.47580304,0.07644 0.646121,0.64612 0.40759,1.353704 -0.528879,1.568882 -4.989526,1.146472 -8.441751,3.800368 -10.853526,8.343641 -1.9443346,3.662715 -2.2812476,5.107419 -2.2731826,9.747561 0.0069,3.944733 0.03775,4.177119 0.8104326,6.097075 0.94055,2.33705 2.200946,4.11027 3.680356,5.17779 0.969835,0.69982 1.247548,0.76368 3.321109,0.76368 2.05913896,0 2.42820796,-0.0833 4.101041,-0.92562 2.573882,-1.29603 5.714111,-4.46213 7.216992,-7.276466 1.7457464,-3.26913 2.5135714,-6.265216 2.5088344,-9.789584 -0.0047,-3.470072 -0.613482,-5.773879 -2.2373594,-8.466303 -1.204166,-1.996534 -1.25808,-2.867918 -0.185124,-2.992085 0.536787,-0.06212 0.858688,0.125185 1.3641424,0.79375 2.086222,2.759456 3.553573,7.946882 3.273634,11.573059 -0.222796,2.885983 -1.122048,6.4666 -2.189701,8.718889 -2.5477384,5.37464 -7.5857074,9.72329 -12.3003974,10.61742 -1.53568,0.29123 -1.493142,0.29169 -3.187591,-0.0345 z m -1.148757,-13.625816 c -1.326389,-1.326389 0.644196,-8.364994 3.360897,-12.00457 1.30975896,-1.75469 1.56832996,-2.018935 4.410907,-4.507694 1.886865,-1.652006 2.357197,-2.236483 3.108854,-3.863345 1.173321,-2.539501 1.231926,-5.129058 0.19159,-8.465779 -0.38173,-1.22434 -0.812768,-2.299442 -0.957862,-2.389116 -0.145095,-0.08967 -0.555775,0.210022 -0.912623,0.665989 -0.778625,0.994898 -1.109166,1.012294 -4.08938004,0.21522 -2.78339396,-0.744434 -4.78343696,-1.90951 -6.93375296,-4.039087 -3.4234216,-3.390405 -5.4623276,-8.941964 -5.4623276,-14.872898 0,-3.826741 0.211449,-3.977951 3.8364576,-2.743641 0.873125,0.297299 2.599531,0.84946 3.836459,1.227024 5.72925696,1.74882 9.398034,4.45185 11.358355,8.368452 1.619541,3.235745 2.103563,8.218509 0.924858,9.520962 -0.378968,0.418756 -0.355784,0.64709 0.265352,2.613331 0.37433,1.184966 0.680601,2.346671 0.680601,2.581565 0,0.234894 0.491222,-0.277268 1.091605,-1.138138 0.600382,-0.86087 1.5528824,-2.068573 2.1166664,-2.683785 0.809276,-0.883098 1.025665,-1.328677 1.027926,-2.116667 0.0104,-3.623622 3.101594,-8.048176 6.928865,-9.917562 1.062497,-0.518964 2.715472,-1.075873 3.673277,-1.237575 2.282146,-0.385284 11.212614,-0.389044 11.930164,-0.005 0.662552,0.354586 0.562039,1.03676 -0.594878,4.037411 -1.370113,3.553606 -3.216395,6.365725 -5.440833,8.287066 -2.902287,2.506829 -5.789192,3.583643 -9.607635,3.583643 -3.469653,0 -4.206116,-0.1792 -4.40063,-1.070783 -0.307354,-1.408798 -0.316828,-1.41799 -1.000052,-0.970324 -1.411714,0.92499 -4.2024214,5.122733 -5.0125714,7.539839 -1.669943,4.982324 -2.315758,6.003657 -5.652082,8.938563 -2.48883204,2.189381 -3.66269804,3.563266 -4.796272,5.61352 -1.020919,1.8465 -2.168577,5.625162 -2.173851,7.157403 -0.0022,0.647335 -0.09153,1.304719 -0.198438,1.460854 -0.357277,0.52177 -1.097525,0.627264 -1.509646,0.215144 z"
         id="path31" /><path
         style="fill:#dde5d7"
         d="m -5.2737474,-34.785263 c -5.8780996,-2.2281 -9.0113226,-11.020926 -6.8970936,-19.355463 1.55421,-6.126878 5.3844436,-11.127387 10.2768716,-13.416831 2.22579996,-1.041577 4.845746,-1.374418 5.123393,-0.650881 0.287895,0.750242 -0.266374,1.302797 -1.518853,1.514154 -1.73648804,0.293036 -4.669267,1.849424 -6.400438,3.396632 -6.6055206,5.903583 -8.2049786,17.429296 -3.328362,23.984229 2.900419,3.89861 7.29545096,3.82824 12.351901,-0.19776 2.538094,-2.02087 4.853755,-5.705386 6.1461074,-9.77927 0.519755,-1.638424 0.631343,-2.56096 0.64007,-5.291667 0.01241,-3.883629 -0.571092,-6.119526 -2.2917894,-8.781779 -1.08249,-1.674823 -1.167956,-2.220327 -0.421511,-2.690383 0.629929,-0.396683 1.577924,0.545543 2.7503554,2.73362 1.928939,3.599929 2.483195,8.824811 1.437677,13.552757 -1.351912,6.113489 -5.3516944,11.470372 -10.4512534,13.997312 -2.03545504,1.0086 -2.50673304,1.13645 -4.449941,1.20714 -1.195361,0.0435 -2.530572,-0.0563 -2.967134,-0.22181 z m -0.343958,-13.499774 c -0.821235,-0.821234 0.283846,-5.989675 1.984859,-9.283149 1.251339,-2.422822 2.21417,-3.534519 6.809086,-7.861851 1.03392,-0.973709 1.815144,-2.024252 2.361054,-3.175 0.731538,-1.54204 0.813756,-1.965908 0.795484,-4.101041 -0.01587,-1.854616 -0.178524,-2.846006 -0.735454,-4.482712 -0.794945,-2.336187 -2.26921,-4.977758 -3.310224,-5.931221 -0.374925,-0.343393 -0.535185,-0.546167 -0.356134,-0.450609 0.193483,0.10326 0.139816,-0.151553 -0.132291,-0.62813 -0.307978,-0.539399 -0.602108,-0.75645 -0.89859304,-0.663107 -0.242415,0.07632 -0.51649,0.01622 -0.609055,-0.133553 -0.105059,-0.16999 0.01085,-0.203937 0.308463,-0.09034 0.344838,0.13162 0.264322,-0.07055 -0.290975,-0.730635 -0.422255,-0.501935 -0.930155,-0.877191 -1.128665,-0.833903 -0.19851096,0.04329 -0.32927896,-0.01855 -0.29059596,-0.137419 0.10762,-0.330706 -0.919725,-1.53512 -1.636763,-1.918867 -0.351289,-0.188004 -1.088091,-0.375342 -1.637338,-0.416307 -0.549246,-0.04096 -1.122768,-0.151202 -1.274494,-0.244974 -0.506338,-0.312934 -0.283765,-0.731629 0.326871,-0.614899 0.54933,0.105011 0.593156,0.03316 0.49461,-0.81096 -0.100004,-0.856607 -0.135343,-0.888959 -0.470444,-0.430681 -0.199275,0.272524 -0.362318,0.591805 -0.362318,0.709513 0,0.117707 -0.120072,0.214013 -0.266826,0.214013 -0.159779,0 -0.133242,-0.238829 0.06615,-0.595312 0.183134,-0.327422 0.351827,-0.634012 0.374873,-0.681312 0.02305,-0.0473 0.20164,-0.110178 0.396875,-0.139731 0.195236,-0.02955 0.505766,-0.147923 0.690067,-0.263043 0.184302,-0.11512 0.645438,-0.265586 1.024746,-0.334368 0.528129,-0.09577 0.654617,-0.03376 0.540064,0.264766 -0.111847,0.291468 0.04683,0.384239 0.628899,0.367689 0.871154,-0.02477 1.112079,-0.735355 0.249322,-0.735355 -0.291041,0 -0.529166,-0.119063 -0.529166,-0.264584 0,-0.391971 1.039948,-0.320766 1.46073,0.100016 0.50006696,0.500068 -0.114748,1.389897 -0.78312,1.133419 -0.304043,-0.116673 -0.417902,-0.06459 -0.339824,0.155448 0.06458,0.182 0.372186,0.302547 0.683567,0.267882 0.409772,-0.04562 0.56614696,0.08227 0.56614696,0.463021 0,0.289326 0.174404,0.526048 0.387566,0.526048 0.213161,0 0.516791,0.241459 0.674733,0.536577 0.157942,0.295117 0.400256,0.466684 0.538476,0.38126 0.138219,-0.08543 0.251308,0.003 0.251308,0.19642 0,0.193455 0.65852504,1.063685 1.46339004,1.933844 0.804864,0.870159 1.387438,1.373748 1.294609,1.119086 -0.113814,-0.312229 -0.03749,-0.463021 0.234353,-0.463021 0.221724,0 0.522719,-0.327422 0.668878,-0.727604 0.161715,-0.442776 0.273921,-0.5495 0.286632,-0.272631 0.01149,0.250235 -0.203683,0.854803 -0.478158,1.343483 -0.348639,0.620722 -0.424624,1.021495 -0.252116,1.32975 0.197969,0.353752 0.316576,0.37618 0.598186,0.113118 0.19319,-0.180467 0.286409,-0.497109 0.207153,-0.703647 -0.09191,-0.23951 -0.03198,-0.306233 0.165443,-0.184216 0.170251,0.105221 0.309547,0.07225 0.309547,-0.07327 0,-0.145521 -0.123906,-0.341161 -0.275346,-0.434756 -0.15144,-0.0936 -0.206162,-0.388153 -0.121604,-0.654573 0.08456,-0.266419 0.07074,-0.815099 -0.0307,-1.219288 l -0.184445,-0.73489 -0.253299,0.646243 c -0.139315,0.355433 -0.306971,0.504015 -0.372569,0.330182 -0.0656,-0.173834 0.01939,-0.575155 0.18887,-0.891825 0.210603,-0.393516 0.216035,-0.51884 0.01716,-0.395929 -0.164057,0.101393 -0.29098,-8.8e-5 -0.29098,-0.232654 0,-0.226869 -0.165855,-0.41249 -0.368568,-0.41249 -0.202712,0 -0.443639,-0.195635 -0.535394,-0.434744 -0.229323,-0.597605 -0.03484,-0.7203 0.369489,-0.233108 0.184076,0.221798 0.443861,0.403269 0.577301,0.403269 0.13344,0 0.11882,-0.148828 -0.03249,-0.330729 -0.15131,-0.181901 -0.50474,-0.628386 -0.785401,-0.992188 -0.400098,-0.518619 -0.58049,-0.59246 -0.83536,-0.341942 -0.257018,0.252628 -0.256181,0.402519 0.004,0.716014 0.359504,0.433176 0.173217,0.961143 -0.327419,0.927957 -0.216287,-0.01434 -0.207926,-0.0639 0.02666,-0.158022 0.215535,-0.08648 0.253718,-0.249788 0.103376,-0.442132 -0.131118,-0.16775 -0.314608,-0.706471 -0.407756,-1.197158 -0.146637,-0.77246 -0.116134,-0.847984 0.227353,-0.562915 0.71414,0.592683 0.415689,5.8e-4 -0.403192,-0.799901 -0.624726,-0.61069 -0.98687304,-0.760362 -1.65364504,-0.683437 -1.075901,0.124125 -1.65922896,-0.273408 -1.20474696,-0.821025 0.24950596,-0.300636 0.23611996,-0.433101 -0.06288,-0.622303 -0.208924,-0.132201 -0.558455,-0.240366 -0.776737,-0.240366 -0.347286,0 -0.348244,0.03075 -0.0077,0.246146 0.214067,0.13538 0.306241,0.329117 0.204831,0.430526 -0.101409,0.10141 -0.336086,0.06036 -0.521504,-0.09123 -0.185418,-0.151584 -0.813373,-0.229502 -1.395456,-0.17315 l -1.058334,0.102457 0.926042,-0.425546 0.926042,-0.425546 -0.780387,-0.223991 c -0.429213,-0.123196 -1.26265,-0.44994 -1.852083,-0.726099 -0.589433,-0.276159 -2.002779,-0.80834 -3.140769,-1.182624 l -2.0690716,-0.680517 0.168811,2.430629 c 0.09285,1.336846 0.266705,2.668754 0.386354,2.959795 0.119649,0.291042 0.4313976,1.445221 0.6927766,2.564842 0.261378,1.119622 0.570753,1.976641 0.687499,1.904488 0.116747,-0.07215 0.141361,0.05359 0.0547,0.279428 -0.08666,0.22584 -0.04782,0.410617 0.08632,0.410617 0.134137,0 0.442606,0.416719 0.685485,0.926042 0.242879,0.509323 0.630623,0.926042 0.861653,0.926042 0.381867,0 0.382257,-0.0378 0.0043,-0.415774 -0.228675,-0.228676 -0.406374,-0.556098 -0.394885,-0.727604 0.0147,-0.219397 0.06045,-0.213795 0.15434,0.0189 0.0734,0.181901 0.272358,0.331659 0.442133,0.332794 0.169774,0.0011 0.451711,0.310244 0.626526,0.686908 0.305495,0.658232 0.290823,0.678061 -0.377596,0.510298 l -0.695443,-0.174545 0.68962,0.8767 c 0.379291,0.482185 0.8171,0.846934 0.972909,0.810554 0.155809,-0.03638 0.283289,0.105421 0.283289,0.315114 0,0.56358 0.446697,0.739828 1.052865,0.415416 0.624341,-0.334137 0.747829,-1.199685 0.13776,-0.965579 -0.218281,0.08376 -0.396875,0.03697 -0.396875,-0.103984 0,-0.140954 0.238125,-0.25628 0.529167,-0.25628 0.828988,0 0.604634,1.579468 -0.226745,1.596303 -0.329802,0.0067 -0.275081,0.134362 0.226745,0.529073 0.363802,0.28615 0.81071,0.644467 0.99313,0.79626 0.37541,0.312384 2.90310196,1.1513 4.298536,1.426643 1.750114,0.345327 2.38125,0.704925 2.38125,1.356747 0,0.782209 -0.405002,1.025726 -1.577472,0.948493 -2.90610404,-0.191431 -6.337392,-1.71303 -8.669565,-3.844504 -3.7813396,-3.455932 -5.6846086,-8.153254 -6.0687756,-14.977915 -0.140541,-2.496689 -0.104143,-2.844172 0.35709,-3.409071 l 0.513583,-0.629 2.6293406,0.84929 c 8.97983396,2.900539 10.35135,3.560746 12.952163,6.234782 2.672057,2.747286 3.834652,5.671125 3.828335,9.627971 -0.0043,2.705727 -0.177775,3.315774 -0.867519,3.051094 -0.353655,-0.13571 -0.28958,0.225383 0.351882,1.983032 0.431349,1.181925 0.784272,2.502714 0.784272,2.935087 0,0.432372 0.09888,0.786132 0.219731,0.786132 0.120852,0 0.61756,-0.565547 1.103795,-1.256771 0.486235,-0.691224 1.4283314,-1.904952 2.0935464,-2.697172 0.715443,-0.852039 1.174766,-1.645319 1.124493,-1.942071 -0.255001,-1.505205 1.323084,-5.303442 3.033868,-7.302108 1.258163,-1.46988 3.79978,-3.098449 5.878646,-3.766806 1.48607,-0.477773 2.605942,-0.585909 7.207137,-0.695929 5.898001,-0.141027 6.590866,-0.0235 6.590866,1.117939 0,0.35001 -0.313232,1.504733 -0.696071,2.566052 -2.24984,6.237082 -6.340499,10.472845 -11.587038,11.998056 -2.083148,0.605587 -7.058105,0.478072 -7.734421,-0.198245 -0.373448,-0.373447 -0.396786,-0.564337 -0.138345,-1.131553 0.305143,-0.669716 0.347027,-0.679046 2.267196,-0.505045 2.185075,0.198006 5.453263,-0.06613 5.453263,-0.44074 0,-0.133938 -0.267891,-0.245347 -0.595313,-0.247575 -0.408981,-0.0028 -0.48899,-0.07151 -0.255622,-0.219591 0.18683,-0.118547 0.268679,-0.400594 0.181886,-0.626772 -0.133439,-0.347737 0.0388,-0.389633 1.115518,-0.271341 0.700327,0.07694 1.333455,0.231351 1.406949,0.343135 0.429915,0.65389 3.860214,-1.981724 3.44685,-2.64833 -0.131048,-0.211334 -0.171711,-0.491936 -0.09036,-0.623561 0.08135,-0.131624 0.241664,-0.08761 0.356257,0.0978 0.154817,0.250499 0.418246,0.13901 1.02526,-0.433914 0.449301,-0.424068 0.81691,-0.882808 0.81691,-1.019422 0,-0.136615 0.224648,-0.494189 0.499218,-0.794609 0.27457,-0.300421 0.768106,-1.294017 1.096748,-2.207992 0.328642,-0.913975 0.699306,-1.724674 0.823699,-1.801553 0.640769,-0.396017 -0.04732,-0.572542 -2.750394,-0.705604 -3.936387,-0.193772 -6.553481,0.01147 -6.366297,0.499258 0.09857,0.256876 -0.08102,0.356965 -0.616854,0.343783 -0.661037,-0.01626 -0.689496,-0.04714 -0.226745,-0.245987 0.422868,-0.181712 0.440502,-0.231126 0.08779,-0.245987 -0.666554,-0.02808 -1.294102,0.271129 -1.128985,0.538295 0.08051,0.130272 0.407251,0.248727 0.726085,0.263233 0.532957,0.02425 0.526365,0.0414 -0.08176,0.212774 -0.416807,0.117457 -0.790774,0.05877 -1.011086,-0.158665 -0.471168,-0.465021 -0.594018,-0.434222 -0.389884,0.09774 0.12873,0.335466 0.06258,0.401617 -0.272887,0.272887 -0.638901,-0.245169 -1.229827,0.05232 -1.047537,0.527358 0.121667,0.317059 0.02907,0.365348 -0.424529,0.221382 -0.457256,-0.145127 -0.780521,0.03054 -1.526162,0.829364 -1.143677,1.225241 -1.941609,2.459897 -1.937457,2.997866 0.0027,0.352778 0.03156,0.352778 0.259542,0 0.179341,-0.27751 0.257699,-0.294906 0.260532,-0.05784 0.0022,0.186468 -0.171616,0.406444 -0.386322,0.488834 -0.214705,0.08239 -0.575699,0.521294 -0.802208,0.975342 l -0.411834,0.825542 0.736062,-0.700244 c 0.404834,-0.385134 1.271843,-1.004935 1.926687,-1.377334 0.654844,-0.3724 1.071562,-0.683306 0.926042,-0.690903 -0.145521,-0.0076 0.39026,-0.301906 1.190625,-0.65402 0.800364,-0.352114 1.30638,-0.644988 1.124479,-0.650832 -0.474387,-0.01524 -0.410109,-0.539793 0.06615,-0.539793 0.218281,0 0.396875,0.133641 0.396875,0.29698 0,0.206247 0.101044,0.213888 0.330729,0.02501 0.560583,-0.460989 3.339973,-1.162019 3.90105,-0.98394 0.38981,0.123721 0.53072,0.399966 0.53072,1.040437 0,0.830232 -0.07286,0.894686 -1.521354,1.34582 -0.836744,0.260604 -1.580885,0.551064 -1.653645,0.645466 -0.07276,0.0944 -0.787136,0.445934 -1.5875,0.781182 -0.800365,0.335249 -1.701007,0.834994 -2.001428,1.110545 -0.300421,0.27555 -0.669715,0.501001 -0.820654,0.501001 -0.15094,0 -0.648198,0.357188 -1.105019,0.79375 -0.456821,0.436563 -0.953257,0.79375 -1.103192,0.79375 -0.582722,0 -4.447172,4.196503 -5.482077,5.953125 -0.6001314,1.018646 -1.5212924,3.10224 -2.0470254,4.630208 -1.151179,3.345736 -2.242892,5.071009 -4.290403,6.780275 -4.84189704,4.042027 -7.182264,7.956926 -7.742347,12.95118 -0.117851,1.050877 -0.295326,2.041829 -0.394388,2.202116 -0.238425,0.385779 -1.021421,0.371392 -1.418883,-0.02607 z M 23.955048,-79.971785 c 0.629869,-0.398342 0.200225,-0.482491 -0.521504,-0.10214 -0.364581,0.192133 -0.483332,0.34852 -0.264583,0.348437 0.218281,-8.3e-5 0.57202,-0.110917 0.786087,-0.246297 z m -0.653796,-0.539501 c 0.08994,-0.145521 -0.0221,-0.264584 -0.248968,-0.264584 -0.22687,0 -0.41249,0.119063 -0.41249,0.264584 0,0.14552 0.112036,0.264583 0.248968,0.264583 0.136933,0 0.322553,-0.119063 0.41249,-0.264583 z m -17.9321224,-3.175 c -0.02192,-0.291042 -0.133587,-0.529167 -0.24814,-0.529167 -0.250433,0 -0.257388,0.09333 -0.04768,0.639819 0.219444,0.57186 0.34373,0.525371 0.29582,-0.110652 z m -5.51373804,-10.60202 c -0.424593,-0.262413 -0.61786,-0.123215 -0.374851,0.269982 0.09739,0.157577 0.300615,0.210146 0.451617,0.116822 0.177765,-0.109865 0.150704,-0.24622 -0.07677,-0.386804 z M 20.192398,-79.628182 c 0.181901,-0.0734 0.479557,-0.0734 0.661458,0 0.181901,0.0734 0.03307,0.133453 -0.330729,0.133453 -0.363802,0 -0.51263,-0.06005 -0.330729,-0.133453 z m -4.564062,-0.618521 c 0.08994,-0.145521 0.216026,-0.264583 0.280198,-0.264583 0.06417,0 0.116677,0.119062 0.116677,0.264583 0,0.145521 -0.12609,0.264583 -0.280199,0.264583 -0.154109,0 -0.206613,-0.119062 -0.116676,-0.264583 z m 2.244754,-0.658357 c 0.490793,-0.362096 0.94751,-0.603198 1.014926,-0.535782 0.185434,0.185434 -1.088167,1.17527 -1.525146,1.185336 -0.210173,0.0048 0.01943,-0.287458 0.51022,-0.649554 z M 1.7377106,-81.15713 c 0,-0.226869 0.119063,-0.41249 0.264583,-0.41249 0.145521,0 0.264584,0.112036 0.264584,0.248969 0,0.136932 -0.119063,0.322553 -0.264584,0.41249 -0.14552,0.08994 -0.264583,-0.0221 -0.264583,-0.248969 z m 1.058333,-0.280198 c 0,-0.218281 0.04679,-0.396875 0.103985,-0.396875 0.05719,0 0.172517,0.178594 0.256279,0.396875 0.08376,0.218281 0.03697,0.396875 -0.103984,0.396875 -0.140954,0 -0.25628,-0.178594 -0.25628,-0.396875 z m -4.233333,-0.132292 c 0,-0.145521 0.119063,-0.264583 0.264583,-0.264583 0.145521,0 0.26458396,0.119062 0.26458396,0.264583 0,0.145521 -0.11906296,0.264584 -0.26458396,0.264584 -0.14552,0 -0.264583,-0.119063 -0.264583,-0.264584 z m -0.923374,-0.533482 c 0.0914,-0.147895 0.277024,-0.200399 0.41249,-0.116677 0.366988,0.226811 0.298558,0.385576 -0.166189,0.385576 -0.22687,0 -0.337705,-0.121005 -0.246301,-0.268899 z m 23.0049344,-0.278305 c -0.09607,-0.155442 -0.370985,-0.207919 -0.610927,-0.116617 -0.333111,0.126755 -0.363334,0.0925 -0.127826,-0.144874 0.236087,-0.237959 0.451592,-0.210606 0.918767,0.116616 0.335685,0.235123 0.471807,0.427496 0.302495,0.427496 -0.169312,0 -0.386441,-0.12718 -0.482509,-0.282621 z m 6.493439,-0.775713 c 0,-0.145521 0.12609,-0.264583 0.280199,-0.264583 0.154109,0 0.206613,0.119062 0.116676,0.264583 -0.08994,0.145521 -0.216026,0.264584 -0.280198,0.264584 -0.06417,0 -0.116677,-0.119063 -0.116677,-0.264584 z m -10.664334,-2.021279 c -0.281731,-0.281731 0.07137,-0.611641 0.48483,-0.452983 0.212785,0.08165 0.321008,0.255047 0.240495,0.38532 -0.171503,0.277498 -0.486139,0.306849 -0.725325,0.06766 z m 0.746952,-1.050862 c -0.276789,-0.202393 -0.353931,-0.367442 -0.171739,-0.367442 0.181923,0 0.262268,-0.110836 0.178546,-0.246301 -0.309656,-0.501033 0.306493,-0.502461 0.735255,-0.0017 0.533741,0.623364 0.540946,0.683382 0.102258,0.851723 -0.187998,0.07214 -0.567941,-0.03418 -0.84432,-0.236276 z m 1.635854,-0.183868 c -0.0625,-0.173726 -0.0012,-0.533983 0.136112,-0.800571 0.185694,-0.360394 0.125631,-0.586469 -0.23419,-0.881495 -0.468763,-0.38435 -0.46874,-0.391965 7.25e-4,-0.242899 0.266564,0.08464 0.534454,0.153891 0.595313,0.153891 0.286746,0 0.06934,1.32524 -0.220077,1.341513 -0.181901,0.01023 -0.10131,0.10847 0.179092,0.218317 0.441602,0.172995 0.452741,0.221624 0.08324,0.363415 -0.23462,0.09003 -0.477716,0.02155 -0.540215,-0.152171 z M 3.1477456,-87.167047 c 0.364173,-0.583133 0.59998,-0.618383 0.791852,-0.118372 0.0908,0.236624 -0.08097,0.412209 -0.477385,0.487989 -0.544837,0.104152 -0.582612,0.05975 -0.314467,-0.369617 z M 30.598182,-87.28021 c 0.0127,-0.308225 0.07539,-0.370919 0.159852,-0.159852 0.07643,0.190996 0.06703,0.419199 -0.02089,0.507118 -0.08792,0.08792 -0.150453,-0.06835 -0.138964,-0.347266 z M 2.5523486,-87.544793 c 0.0127,-0.308225 0.07539,-0.37092 0.159853,-0.159853 0.07643,0.190996 0.06703,0.419199 -0.02089,0.507118 -0.08792,0.08792 -0.150452,-0.06835 -0.138964,-0.347265 z m -5.047971,-0.110243 c 0,-0.145521 0.119062,-0.264584 0.264583,-0.264584 0.145521,0 0.264583,0.119063 0.264583,0.264584 0,0.14552 -0.119062,0.264583 -0.264583,0.264583 -0.145521,0 -0.264583,-0.119063 -0.264583,-0.264583 z m 23.8124994,0.02831 c 0,-0.129952 0.188332,-0.308545 0.418515,-0.396875 0.647398,-0.24843 0.711499,-0.194482 0.280741,0.236276 -0.449802,0.449802 -0.699256,0.507095 -0.699256,0.160599 z m 3.902604,-0.475275 c -0.254661,-0.06655 -0.46302,-0.227595 -0.46302,-0.357879 0,-0.130283 0.199264,-0.160414 0.442808,-0.06696 0.335467,0.12873 0.401618,0.06258 0.272888,-0.272887 -0.211197,-0.55037 0.16496,-0.578825 0.60722,-0.04593 0.272767,0.328664 0.24423,0.397571 -0.166041,0.400926 -0.416696,0.0034 -0.432355,0.04481 -0.09854,0.260532 0.409757,0.264805 0.209344,0.292478 -0.595313,0.0822 z m 5.550738,0.02253 c -0.106109,-0.106109 -0.192925,-0.375488 -0.192925,-0.59862 0,-0.297813 0.07827,-0.327422 0.294349,-0.111345 0.161892,0.161891 0.248708,0.43127 0.192925,0.598619 -0.05578,0.167349 -0.18824,0.217455 -0.294349,0.111346 z m -29.3840474,-0.30317 c -0.107559,-0.180593 -0.07884,-0.872885 0.07956,-1.918229 0.03322,-0.219195 0.147976,-0.100742 0.256334,0.264584 0.107907,0.363802 0.08146,0.810286 -0.05877,0.992187 -0.16928,0.219583 -0.15516,0.330729 0.04202,0.330729 0.163339,0 0.29698,0.119063 0.29698,0.264584 0,0.3086 -0.443371,0.356199 -0.616122,0.06614 z m 1.145289,-0.346344 c 0,-0.154109 0.119062,-0.206613 0.264583,-0.116676 0.145521,0.08994 0.264584,0.216026 0.264584,0.280198 0,0.06417 -0.119063,0.116677 -0.264584,0.116677 -0.145521,0 -0.264583,-0.12609 -0.264583,-0.280199 z m 19.7114584,0.01562 c 0.08994,-0.145521 0.387593,-0.264583 0.661458,-0.264583 0.273865,0 0.571522,0.119062 0.661459,0.264583 0.09566,0.154781 -0.178847,0.264584 -0.661459,0.264584 -0.482612,0 -0.757118,-0.109803 -0.661458,-0.264584 z m -31.4634694,-1.816577 c -0.113975,-0.184415 -0.135773,-0.406754 -0.04844,-0.494086 0.236791,-0.236792 0.494974,0.111469 0.367079,0.495152 -0.08962,0.268863 -0.151941,0.268655 -0.318638,-0.0011 z m -0.397934,-1.248185 c 0.0127,-0.308224 0.07539,-0.370919 0.159853,-0.159852 0.07643,0.190996 0.06703,0.419199 -0.02089,0.507118 -0.08792,0.08792 -0.150452,-0.06835 -0.138963,-0.347266 z m 0.79375,-0.79375 c 0.0127,-0.308224 0.07539,-0.370919 0.159853,-0.159852 0.07643,0.190996 0.06703,0.419199 -0.02089,0.507118 -0.08792,0.08792 -0.150452,-0.06835 -0.138963,-0.347266 z m 2.889529,-2.888368 c 0,-0.218281 0.06804,-0.396875 0.15119,-0.396875 0.08316,0 0.329784,0.178594 0.548065,0.396875 0.352778,0.352778 0.335979,0.396875 -0.15119,0.396875 -0.31078,0 -0.548065,-0.171827 -0.548065,-0.396875 z"
         id="path30" /><path
         style="fill:#cfd5ca"
         d="m -4.8785854,-34.720993 c -4.548992,-1.38375 -7.5126666,-6.43129 -7.8554056,-13.378835 -0.125177,-2.537403 -0.05566,-3.2739 0.542395,-5.746472 1.05285,-4.352854 3.0335076,-7.888387 6.0700916,-10.835292 3.043689,-2.9538 9.136953,-5.037759 9.396625,-3.213742 0.09461,0.664557 -0.39321,0.985425 -1.917154,1.261031 -2.938981,0.531516 -7.097186,3.662458 -9.075495,6.833441 -2.203536,3.531995 -3.0540886,6.499749 -3.0880906,10.774992 -0.02684,3.37452 0.307353,5.118779 1.4447456,7.540627 1.639177,3.49029 3.664878,4.98935 6.761552,5.00368 1.66036296,0.008 2.12384896,-0.11148 3.956493,-1.01722 5.437494,-2.68736 9.5303544,-9.407032 9.8411814,-16.157295 0.184889,-4.01526 -0.540967,-6.960019 -2.4434594,-9.91299 -1.081755,-1.679055 -1.132135,-1.9997 -0.377637,-2.403495 0.796217,-0.426122 1.6248684,0.445415 2.9034234,3.053686 2.878775,5.872745 2.340946,13.492505 -1.3997784,19.831534 -1.277559,2.16495 -4.563155,5.57491 -6.391763,6.6337 -2.93538504,1.69963 -6.232129,2.38226 -8.367724,1.73265 z m -0.800618,-13.791744 c -0.212121,-0.396352 -0.212824,-1.064533 -0.0026,-2.447396 0.833726,-5.483649 2.925379,-9.198941 7.25385,-12.884625 1.255225,-1.068821 2.69567,-2.547363 3.200988,-3.285649 2.499061,-3.651205 2.163401,-8.38454 -1.004009,-14.158116 -1.564189,-2.851215 -4.65115404,-6.319269 -7.112931,-7.99103 -1.165375,-0.791391 -1.532991,-1.196081 -1.532991,-1.687593 0,-1.046054 1.096206,-1.146665 2.455129,-0.225334 1.72797196,1.171541 5.847722,5.380432 6.839812,6.987807 l 0.891517,1.444428 0.07829,-1.945682 c 0.153674,-3.819077 -1.582428,-6.998237 -5.23766604,-9.591246 -1.15264696,-0.817683 -3.53780496,-1.815575 -7.14374996,-2.988773 -1.527969,-0.497126 -2.986484,-0.987061 -3.2411456,-1.088744 -0.408242,-0.163006 -0.46302,-0.0075 -0.46302,1.314102 0,6.235899 2.6112536,11.8882 6.8201916,14.762934 1.42759,0.975054 5.050361,2.315534 6.257944,2.315534 0.790914,0 1.300815,0.617964 1.081101,1.31022 -0.128681,0.405439 -0.397361,0.541864 -1.067169,0.541864 -1.60515204,0 -3.661154,-0.560773 -5.670156,-1.546531 -5.727472,-2.8103 -9.2521796,-9.430514 -9.3538246,-17.56864 -0.04729,-3.786133 0.06418,-3.908303 2.7490636,-3.012983 1.078536,0.359656 3.330192,1.089644 5.003682,1.622196 4.00076196,1.273157 6.238439,2.48166 8.262345,4.462247 2.782974,2.72341 4.173071,6.018352 4.173071,9.891419 0,2.434996 -0.282792,3.31981 -0.976011,3.053797 -0.350847,-0.134633 -0.396435,-0.06638 -0.227497,0.340581 0.748004,1.801902 1.457757,4.049825 1.462511,4.632045 0.0096,1.177299 0.329313,1.085325 1.307581,-0.376172 0.520827,-0.778097 1.4747814,-2.02826 2.1198974,-2.77814 0.961263,-1.117367 1.181678,-1.570804 1.221362,-2.512574 0.11031,-2.61785 1.964865,-6.1189 4.220233,-7.967005 1.905909,-1.561749 4.716865,-2.721588 7.428776,-3.065215 3.270226,-0.414371 10.672222,-0.09493 10.888977,0.469923 0.208361,0.54298 -0.85107,3.76318 -1.975343,6.004168 -1.899211,3.785654 -4.421855,6.4296 -7.582719,7.947337 -2.374818,1.140306 -3.723237,1.447674 -6.378392,1.453936 -3.263038,0.0077 -4.643478,-0.547619 -4.204572,-1.691391 0.229954,-0.599252 0.724402,-0.664056 2.606655,-0.34164 1.468733,0.251583 2.12119,0.228673 3.887175,-0.136493 4.731994,-0.978471 8.040465,-3.90502 10.46418,-9.256218 l 1.112821,-2.456939 -3.890421,-0.07763 c -2.139732,-0.0427 -4.657889,0.05415 -5.595904,0.215209 -3.72263,0.639197 -6.550264,2.73346 -8.099985,5.999185 -0.518862,1.093398 -0.895043,2.036338 -0.835958,2.095424 0.05909,0.05909 0.632109,-0.287181 1.273385,-0.76948 2.90811,-2.187167 7.320241,-4.247191 8.791279,-4.104649 0.733584,0.07108 0.841345,0.179957 0.841345,0.850028 0,0.685707 -0.142525,0.817069 -1.322917,1.219299 -4.815,1.640758 -10.609968,5.854951 -13.093187,9.521574 -1.3372364,1.97451 -1.6356974,2.601476 -2.7709504,5.820833 -1.270014,3.601517 -2.315812,5.104587 -5.368237,7.715485 -3.945013,3.374375 -6.118344,7.250101 -6.709575,11.965262 -0.14565,1.16158 -0.324932,2.209228 -0.398403,2.328108 -0.256703,0.415354 -1.144496,0.211614 -1.433853,-0.329055 z"
         id="path29" /><path
         style="fill:#bbc3b6"
         d="m -5.3369724,-35.026513 c -3.067417,-0.97186 -5.5179666,-4.12846 -6.7305316,-8.669716 -0.700256,-2.622579 -0.759547,-7.280426 -0.127952,-10.051936 1.655369,-7.263944 7.1464016,-13.404641 13.07638656,-14.623499 1.43907904,-0.295791 1.70977504,-0.28752 2.06024304,0.06295 0.687237,0.687238 0.186698,1.239803 -1.424837,1.572937 -8.465788,1.750031 -14.2879026,12.661261 -11.9528856,22.400915 0.6376126,2.659569 1.7330476,4.664129 3.4018156,6.225069 1.578831,1.47681 2.784335,1.89104 4.98847,1.71411 2.62433296,-0.21066 4.768452,-1.39353 7.503081,-4.13933 1.858541,-1.86614 2.487132,-2.723202 3.510649,-4.786687 1.6324504,-3.291141 2.2952444,-5.973719 2.2952444,-9.289717 0,-3.963902 -0.803014,-6.757765 -2.7025764,-9.402857 -0.678854,-0.945288 -0.758964,-1.202791 -0.479101,-1.540006 0.569814,-0.686584 1.204231,-0.454574 2.0758664,0.759156 2.185832,3.043717 3.252498,7.771373 2.765134,12.255572 -0.934186,8.595374 -6.4401404,15.837489 -13.42272444,17.655249 -2.01442896,0.52441 -2.80572496,0.50114 -4.83628196,-0.14221 z m -0.33365,-14.733209 c 0,-3.18588 1.547607,-7.445535 3.785197,-10.418431 0.610277,-0.810823 2.30021896,-2.533156 3.755428,-3.827406 4.020352,-3.57567 5.060721,-6.106904 4.407757,-10.724149 -0.724159,-5.120689 -4.61309,-11.071399 -9.633278,-14.74052 -1.578162,-1.153437 -1.803748,-1.589815 -1.116644,-2.160061 0.557139,-0.462384 1.143961,-0.155819 3.69633096,1.931021 2.01237404,1.645334 4.03913504,3.907094 5.44456704,6.075852 0.352467,0.543902 0.730147,0.990386 0.839287,0.992188 0.288306,0.0048 0.231056,-3.106418 -0.08216,-4.465067 -0.839411,-3.641109 -3.382517,-6.579666 -7.225764,-8.349366 -2.434872,-1.121185 -8.7800266,-3.263261 -9.0037056,-3.039582 -0.06631,0.06631 -0.0043,1.488435 0.137878,3.16028 0.438806,5.161168 2.1105546,9.042498 5.0853726,11.806802 1.882405,1.749197 4.014578,2.86296 6.27833396,3.279555 2.12299204,0.390691 2.47365404,0.564261 2.57964704,1.276878 0.119396,0.80272 -0.459053,0.935297 -2.53004304,0.579872 -7.90485496,-1.356636 -13.29736756,-9.092483 -13.29736756,-19.075782 0,-2.590092 0.131826,-3.161982 0.728861,-3.161982 0.995979,0 9.3962796,2.812309 11.30968056,3.786331 5.19600104,2.645038 8.27713004,7.69847 8.02874004,13.168126 -0.05129,1.129402 -0.171899,2.132105 -0.268023,2.228229 -0.09612,0.09612 -0.423093,0.04187 -0.726598,-0.120558 -0.303505,-0.162431 -0.551828,-0.234708 -0.551828,-0.160616 0,0.07409 0.359423,1.039507 0.798717,2.145367 0.439294,1.105859 0.888848,2.627005 0.999008,3.380325 l 0.200292,1.369671 1.170899,-1.719791 c 0.643995,-0.945886 1.6679744,-2.255573 2.2755094,-2.910417 1.000401,-1.078301 1.115389,-1.344613 1.218866,-2.822876 0.250493,-3.578544 3.202962,-7.56322 6.897602,-9.309059 2.69779,-1.274795 4.393177,-1.479337 11.612362,-1.40099 4.183144,0.0454 4.174577,0.03958 3.499777,2.37755 -1.230776,4.264257 -4.22644,8.754212 -7.260892,10.882759 -2.523693,1.77027 -4.851338,2.467187 -8.315265,2.489664 -3.236541,0.021 -4.189256,-0.271276 -4.050952,-1.242763 0.07983,-0.560772 0.167217,-0.574641 3.032562,-0.481297 2.295373,0.07478 3.264551,-0.0068 4.365625,-0.367316 3.291231,-1.077712 5.48021,-2.692503 7.472379,-5.512308 1.077125,-1.52461 3.071011,-5.56443 3.071011,-6.222186 0,-0.478421 -7.987308,-0.391971 -9.932432,0.107503 -3.659323,0.939651 -6.242428,2.915181 -7.742245,5.921183 -1.267758,2.5409 -1.148955,2.892019 0.542906,1.604544 1.735399,-1.320605 5.400044,-3.224151 7.414703,-3.851456 1.441004,-0.448687 1.553391,-0.450022 1.97989,-0.02352 0.660877,0.660877 0.176475,1.234673 -1.532803,1.815674 -4.598201,1.562977 -10.079057,5.589593 -12.628891,9.278058 -1.5037974,2.175319 -2.2042624,3.631619 -3.0215004,6.281839 -0.874998,2.837528 -1.857086,4.243746 -5.010539,7.174414 -4.484355,4.167544 -5.991719,6.75686 -6.836326,11.743294 -0.429994,2.538615 -0.4768,2.649226 -1.155042,2.729553 -0.69579,0.08241 -0.706887,0.05919 -0.706887,-1.47903 z"
         id="path28" /><path
         style="fill:#adb4a7"
         d="m -5.7051734,-35.242353 c -1.809733,-0.70787 -3.002509,-1.73188 -4.142751,-3.5566 -1.9721826,-3.15606 -2.7018646,-5.88911 -2.7018646,-10.119944 0,-8.154197 4.2011566,-15.371022 10.7067346,-18.392229 3.190327,-1.481595 5.028069,-1.646292 4.856093,-0.435198 -0.07063,0.497405 -0.375969,0.667088 -1.838029,1.02144 -6.920768,1.677351 -12.2158696,9.400731 -12.2250316,17.831306 -0.006,5.478763 2.0201266,10.013615 5.3511886,11.977225 3.238434,1.90901 8.829179,-0.24556 12.542062,-4.83348 1.634801,-2.020079 3.5386564,-5.95158 4.0733224,-8.411494 0.511761,-2.354528 0.558872,-6.405195 0.09911,-8.521835 -0.333266,-1.534291 -1.5417874,-4.196239 -2.6370704,-5.808543 -0.539847,-0.794677 -0.376237,-1.467498 0.356851,-1.467498 0.843515,0 2.4590334,2.660132 3.4546944,5.688541 0.598485,1.820355 0.697627,2.583855 0.708208,5.45397 0.01058,2.870282 -0.08844,3.684848 -0.707619,5.820834 -1.275671,4.400707 -3.1624414,7.548105 -6.2240964,10.382655 -3.64876,3.37811 -8.25343,4.70795 -11.671805,3.37085 z m 0.123735,-13.40357 c -0.278815,-0.726582 0.180558,-3.873395 0.865622,-5.929703 1.298638,-3.898034 2.93698,-6.069836 8.127761,-10.774239 2.661965,-2.412538 3.590708,-5.695988 2.838786,-10.03616 -0.384774,-2.220955 -2.043585,-5.991671 -3.586213,-8.151975 -1.324786,-1.855239 -4.520186,-5.020142 -6.152328,-6.093612 -0.797929,-0.524803 -1.124479,-0.921454 -1.124479,-1.365876 0,-0.481068 0.144234,-0.626298 0.622001,-0.626298 1.365392,0 6.120414,4.362465 8.246756,7.565934 0.513502,0.773624 1.043803,1.474673 1.178448,1.557888 0.44329,0.273968 0.610496,-1.73476 0.300599,-3.611255 -0.633569,-3.836408 -3.108462,-7.208414 -6.66064504,-9.075033 -1.40277896,-0.73714 -9.32347756,-3.581284 -9.97356856,-3.581284 -0.257611,0 0.158137,4.861329 0.588317,6.879166 1.0345536,4.852769 3.9357966,8.760911 8.0440566,10.835814 0.635437,0.320931 2.12240696,0.784026 3.304379,1.029099 1.668308,0.345912 2.170038,0.554626 2.242911,0.933025 0.165163,0.857626 -0.306372,1.015225 -2.103628,0.703088 -7.424163,-1.289389 -12.4755376,-7.282914 -13.4418576,-15.948949 -0.382108,-3.426775 -0.359405,-5.287049 0.07172,-5.876647 0.342138,-0.4679 0.49897,-0.44337 3.7703116,0.589827 1.877329,0.592919 3.710981,1.160334 4.074783,1.260921 2.931788,0.810606 6.734584,3.095848 8.44504,5.074937 2.349996,2.719072 3.796704,7.243879 3.303334,10.331699 -0.239976,1.50192 -0.331664,1.595045 -1.227227,1.24646 -0.385798,-0.150167 -0.333929,0.124765 0.325007,1.722701 0.431237,1.045761 0.929527,2.605628 1.10731,3.466371 0.177784,0.860743 0.415427,1.564988 0.528095,1.564988 0.112669,0 0.403018,-0.386954 0.64522,-0.859896 0.242202,-0.472943 1.178765,-1.755523 2.0812514,-2.850178 1.520879,-1.844725 1.65147,-2.10703 1.785636,-3.586633 0.156928,-1.73063 1.271659,-4.2598 2.646413,-6.004348 1.172806,-1.488275 3.801251,-3.233925 5.892213,-3.913241 1.633338,-0.530642 2.531562,-0.615139 7.605141,-0.715426 6.546136,-0.129394 6.328309,-0.206234 5.807799,2.048735 -0.722609,3.130516 -3.245452,7.422629 -5.727846,9.744787 -1.8715,1.750696 -3.651691,2.722109 -6.229886,3.399516 -3.105358,0.815916 -7.823633,0.405831 -7.617463,-0.662067 0.07311,-0.378689 0.529928,-0.439046 3.387963,-0.447633 3.141467,-0.0094 3.404617,-0.05307 5.366365,-0.889742 2.371649,-1.011495 4.480333,-2.624928 5.825331,-4.457182 1.118893,-1.524238 3.041178,-5.30325 3.263777,-6.416248 l 0.158923,-0.794611 h -4.671628 c -4.000028,0 -4.901643,0.07749 -6.271606,0.538994 -2.943157,0.991478 -5.240667,2.792219 -6.570146,5.149548 -0.764085,1.354814 -1.474124,3.259545 -1.285425,3.448244 0.05802,0.05802 0.941567,-0.515501 1.96343,-1.274499 2.275644,-1.690254 6.145443,-3.563123 7.839541,-3.794107 1.163892,-0.158693 1.256771,-0.129172 1.256771,0.399446 0,0.373043 -0.252084,0.675503 -0.727604,0.873005 -4.723922,1.962031 -7.638509,3.721752 -10.486331,6.331264 -2.966454,2.718217 -4.8780254,5.714969 -6.0299644,9.453121 -1.066603,3.461229 -2.100551,4.959007 -5.218614,7.559697 -3.67248804,3.06312 -5.772212,6.530406 -6.520333,10.767058 -0.241314,1.366578 -0.488662,2.752578 -0.549661,3.08 -0.129526,0.695253 -1.087422,0.825534 -1.334558,0.181509 z"
         id="path27" /><path
         style="fill:#a2ab9b"
         d="m -5.1386844,-35.050803 c -1.317868,-0.37784 -3.261716,-1.88413 -4.357068,-3.3763 -2.5116116,-3.4215 -3.6543126,-9.268891 -2.7726676,-14.188195 0.385886,-2.153126 1.676485,-5.607133 2.7830986,-7.448358 1.269312,-2.111929 3.822058,-4.902775 5.508224,-6.021989 1.394493,-0.925611 5.358944,-2.519392 6.266865,-2.519392 0.452785,0 0.969677,0.947711 0.676691,1.240697 -0.07837,0.07837 -1.011972,0.37553 -2.07467904,0.660364 -2.58578196,0.693059 -4.50263396,1.834181 -6.49923896,3.869064 -3.281077,3.343981 -5.2834026,8.051208 -5.5363486,13.015292 -0.138541,2.718867 0.06298,4.491301 0.721982,6.35 1.1507856,3.245767 2.1527296,4.778157 4.0995146,6.269857 1.283257,0.98328 1.364338,1.00618 3.562105,1.00618 1.95824196,0 2.43706896,-0.0978 3.70416696,-0.75623 3.93819704,-2.04659 6.60371904,-4.86811 8.69342404,-9.202215 1.2163004,-2.522638 2.3076734,-7.709035 2.0217124,-9.607537 -0.529183,-3.51326 -1.165079,-5.429308 -2.5712204,-7.747461 -0.550092,-0.906876 -1.000166,-1.757341 -1.000166,-1.889922 0,-0.308836 0.563991,-0.518301 0.992819,-0.368729 0.62077,0.216519 2.1334704,2.843784 2.8591864,4.965849 0.960892,2.80974 1.214249,7.952742 0.510373,10.360259 -0.248598,0.850295 -0.621982,2.19425 -0.829742,2.986567 -0.687959,2.623603 -3.2662934,6.627399 -5.6267684,8.737589 -3.667131,3.2783 -7.769481,4.62874 -11.132263,3.66461 z m -0.433286,-13.570447 c -0.219462,-0.571909 0.115779,-3.41889 0.542857,-4.610123 0.188089,-0.52463 0.558805,-1.605184 0.823813,-2.401233 0.856698,-2.573403 2.848334,-5.337533 5.462136,-7.580727 2.059882,-1.767814 3.74097,-3.502005 4.16343,-4.294947 0.538537,-1.010815 1.344528,-3.904604 1.344528,-4.827323 0,-1.160803 -0.635095,-4.330601 -1.202551,-6.002003 -1.254755,-3.695796 -5.25420804,-8.846777 -8.719324,-11.229803 -1.352117,-0.929877 -1.742548,-1.836025 -0.863987,-2.00522 0.540676,-0.104125 3.08342496,1.794832 5.00317396,3.736434 1.70727504,1.726709 4.94336104,6.001992 4.54308204,6.001992 -0.09093,0 0.0191,0.208359 0.244516,0.463021 0.447725,0.505822 2.053424,5.312087 2.053424,6.146422 0,0.764987 0.632323,0.402713 1.13425,-0.649839 0.48266,-1.012148 0.87748,-1.533768 2.5604874,-3.382815 1.105149,-1.214178 1.182489,-1.39673 1.201272,-2.835464 0.01104,-0.845755 0.147381,-1.69909 0.302976,-1.896301 0.155595,-0.197211 0.50275,-0.945973 0.771455,-1.663915 0.544667,-1.455272 3.089711,-4.363847 4.437346,-5.07117 2.333265,-1.224643 2.907519,-1.437099 4.581175,-1.694891 0.996644,-0.153512 4.074267,-0.245714 6.839163,-0.204893 l 5.027083,0.07422 -0.0521,0.926042 c -0.06633,1.178865 -1.303099,4.178206 -2.731058,6.623211 -3.041893,5.208438 -8.251167,8.042842 -13.912701,7.57 -2.265656,-0.189224 -2.75101,-0.354134 -2.75101,-0.934718 0,-0.391848 0.391038,-0.442239 3.373437,-0.434713 3.228936,0.0081 3.45856,-0.02825 5.360645,-0.849718 2.945742,-1.272197 4.865386,-3.022702 6.968881,-6.354852 0.7767,-1.230373 2.400947,-5.065994 2.221327,-5.245614 -0.07049,-0.07049 -2.257059,-0.143583 -4.85904,-0.162428 -3.595889,-0.02604 -5.048257,0.06374 -6.053792,0.374244 -3.733304,1.152818 -6.968882,4.272638 -7.782586,7.504149 -0.370759,1.47242 -0.226514,1.717152 0.573733,0.973416 1.906544,-1.77191 7.31273,-4.527467 9.094087,-4.635296 0.850726,-0.0515 1.025183,0.02302 1.025183,0.437906 0,0.360302 -0.316458,0.593402 -1.132864,0.834458 -0.623076,0.183972 -1.277919,0.44505 -1.455209,0.580173 -0.177289,0.135123 -0.739063,0.405749 -1.248386,0.601392 -2.883737,1.10771 -8.664827,5.769178 -10.497215,8.464223 -1.1117084,1.635082 -2.3610184,4.176681 -2.6010904,5.291666 -0.109665,0.509323 -0.643517,1.878542 -1.186337,3.042709 -0.744027,1.595687 -1.370475,2.47484 -2.545168,3.571875 -3.430894,3.204078 -5.638694,5.610221 -6.18695,6.742765 -0.317318,0.655491 -0.682466,1.25702 -0.811442,1.336731 -0.297552,0.183897 -0.704249,1.640768 -1.437571,5.14967 -0.434217,2.077703 -0.691297,2.799732 -1.01967,2.863826 -0.24149,0.04713 -0.513022,-0.107008 -0.603404,-0.342539 z m 7.441973,-29.710806 c -1.57018204,-0.177644 -4.412744,-1.191448 -4.04956,-1.444281 0.228838,-0.159306 0.141784,-0.183076 -0.257969,-0.07044 -0.437705,0.123332 -0.982528,-0.08569 -1.984375,-0.761304 -3.225368,-2.175089 -5.500462,-5.152845 -6.5654636,-8.593204 -0.299833,-0.968574 -0.65997,-2.065653 -0.800305,-2.437953 -0.33038,-0.87648 -0.70338,-5.841169 -0.558999,-7.440375 0.06148,-0.680965 0.255348,-1.293207 0.43082,-1.360547 0.175472,-0.0673 1.503604,0.28055 2.9514036,0.773085 1.447801,0.49253 2.787327,0.896416 2.976725,0.897524 0.458708,0.0027 5.66872396,2.063466 5.85762196,2.316938 0.08141,0.10924 0.606888,0.432396 1.16772904,0.718125 1.027916,0.523687 4.404247,3.937244 4.404247,4.452805 0,0.152728 0.162145,0.465656 0.360324,0.695395 1.371177,1.589549 2.068546,9.016667 0.846619,9.016667 -0.509403,0 -0.677228,-0.607852 -0.681688,-2.469035 -0.01103,-4.604483 -2.093636,-8.312257 -6.08479804,-10.83311 -1.73215196,-1.094042 -7.77227296,-3.308138 -10.41850256,-3.819057 l -0.764504,-0.147606 0.194071,2.482842 c 0.691827,8.85085 4.6484476,14.477442 11.43999656,16.268474 1.42721704,0.376378 2.70890004,0.79295 2.84818404,0.925715 0.412528,0.393219 -0.434173,0.928608 -1.311577,0.829341 z"
         id="path26" /></g></g></svg>
