<?xml version="1.0" encoding="UTF-8" standalone="no"?>
<!-- Created with Inkscape (http://www.inkscape.org/) -->

<svg
   version="1.1"
   id="svg1"
   width="153.60001"
   height="153.28"
   viewBox="0 0 153.60001 153.28"
   xmlns="http://www.w3.org/2000/svg"
   xmlns:svg="http://www.w3.org/2000/svg">
   <defs
      id="defs1" />
   <g
      id="g1">
      <path
         style="fill:#4a6982;fill-opacity:1"
         d="M 93.280004,151.00802 C 76.173955,149.22494 66.749455,143.34337 36.960001,115.86029 24.269829,104.15262 22.121999,102.23909 16.640001,97.756964 7.5808662,90.350135 4.3438234,87.068431 2.2112239,83.129112 -0.96955796,77.2536 1.977437,69.488325 8.5600003,66.400209 11.072598,65.221459 11.1732,65.532296 7.1200003,61.950925 1.3921581,56.889854 0.15316587,54.769509 0.38150776,50.419029 0.73377905,43.707385 6.9098237,37.12 12.850097,37.12 c 1.191299,0 1.147757,-0.420384 -0.207537,-2.003741 -4.9352015,-5.765673 -2.649935,-15.631341 4.427945,-19.115769 3.606297,-1.775375 5.944236,-1.868305 11.249496,-0.447155 0.594419,0.15923 0.631969,0.04062 0.52723,-1.665345 C 28.36385,6.0147143 35.62218,-0.87981704 43.120002,0.33059285 48.202773,1.1511294 50.187014,2.7749673 70.594217,22.814594 c 8.818818,8.659973 17.566819,17.160005 19.440001,18.888961 3.954245,3.649785 3.98696,3.745221 1.597303,4.659691 -4.370254,1.672401 -7.720554,4.697662 -14.215954,12.836754 -2.036623,2.552 -5.905246,6.938674 -8.596941,9.748165 -6.063008,6.328344 -6.800689,7.677422 -4.645992,8.496637 2.270545,0.863259 5.334119,-0.204042 9.267369,-3.228608 5.619033,-4.320888 6.827356,-5.145539 8.411094,-5.740365 2.207356,-0.829048 3.634369,-0.357295 4.211812,1.392374 0.62072,1.880799 0.420737,2.413934 -7.550526,20.128955 C 70.388826,108.05063 69.939555,109.76 73.31814,109.76 c 1.815803,0 2.496437,-1.13218 8.753071,-14.560001 5.566569,-11.946823 6.820113,-13.420307 9.384579,-11.031143 1.509668,1.406469 1.103431,2.935399 -7.097573,26.712714 C 81.986262,117.75861 82.147666,120 85.014842,120 c 1.698095,0 2.736544,-1.32376 3.960534,-5.04869 0.976837,-2.97278 6.758779,-19.206446 8.516487,-23.911311 1.286463,-3.443483 2.657347,-4.625127 4.585887,-3.952834 2.37919,0.829388 2.39215,2.045924 0.12059,11.31843 -4.344818,17.735525 -4.387557,17.994275 -3.172882,19.208945 1.591212,1.59122 3.204032,0.49585 4.097402,-2.7828 7.85643,-28.833153 7.59527,-28.111741 10.17674,-28.111741 2.94676,0 3.10286,1.977006 0.93489,11.84 -2.04359,9.297151 -2.04134,10.910441 0.0159,11.362271 2.2669,0.4979 2.45274,0.0386 5.41894,-13.391786 0.53806,-2.436234 1.5486,-6.468234 2.24565,-8.96 4.60144,-16.44896 5.04167,-20.660842 3.8301,-36.644328 -1.50156,-19.809183 7.61471,-33.324839 18.97081,-28.125846 5.70133,2.610157 6.53969,5.315308 6.76833,21.83969 0.0828,5.984 0.39144,16.496 0.68588,23.359999 1.27208,29.654985 -0.0562,41.413561 -6.07295,53.760001 -9.37155,19.23057 -31.47815,31.47233 -52.817106,29.24802 z m 12.905416,-7.19356 c 14.4295,-2.50698 26.82122,-11.55399 33.06312,-24.13891 5.94752,-11.99139 7.09282,-23.404103 5.90834,-58.87555 -0.27916,-8.36 -0.60075,-18.656 -0.71464,-22.88 -0.24966,-9.258909 -0.56804,-9.959022 -4.22309,-9.286412 -7.42424,1.366223 -9.13447,6.12509 -9.21687,25.64673 -0.0708,16.767837 -0.0867,16.886523 -4.43426,33.079681 -1.29946,4.84 -2.88714,11.248 -3.52818,14.240001 -1.96612,9.17664 -3.0207,11.32871 -6.13402,12.5177 -2.27613,0.86926 -5.90819,-0.21942 -7.2837,-2.18324 -0.65353,-0.93304 -0.72102,-0.82225 -1.82442,2.99485 -1.46941,5.08332 -2.78529,6.92724 -5.45682,7.64661 -3.903288,1.05105 -8.580876,-2.34109 -8.580876,-6.22275 0,-1.35964 -0.436273,-0.73425 -1.271994,1.82338 -1.316661,4.02949 -4.010847,6.3876 -7.275758,6.36818 -5.668429,-0.0337 -8.544504,-5.50523 -6.172807,-11.74326 0.561712,-1.47742 0.385829,-1.93076 -0.374205,-0.96453 -2.837855,3.60775 -9.05685,2.94881 -11.176379,-1.18419 -1.511035,-2.94647 -0.891713,-4.99941 6.10975,-20.252751 3.313708,-7.219221 6.77808,-15.509937 6.646258,-15.905403 -0.04817,-0.144513 -1.164775,0.685192 -2.481343,1.843789 -12.720077,11.193835 -25.845174,4.469784 -14.840055,-7.602632 1.010649,-1.108665 6.166316,-6.669977 11.457038,-12.358472 5.290722,-5.688495 9.65899,-10.450982 9.707262,-10.583303 0.04827,-0.132322 -2.327728,-2.312274 -5.28,-4.844339 C 75.855499,38.417574 66.885505,29.835212 58.874452,21.877724 49.15164,12.219922 44.011834,7.3350055 43.415408,7.1853121 39.442121,6.1880806 35.358703,9.4951529 35.606434,13.509631 35.809624,16.802312 38.841967,20.368138 55.820525,37.28 71.590413,52.98794 71.820366,53.276254 70.41593,55.579577 68.710508,58.376527 67.071231,58.0868 62.804261,54.234285 60.909919,52.523942 53.600002,46.001344 46.560002,39.739624 39.520002,33.477903 32.248001,26.998026 30.400001,25.339897 24.619917,20.153683 19.891816,20.017708 17.339081,24.96428 c -2.481479,4.808497 2.981875,10.915957 28.88063,32.28553 9.371748,7.732814 9.898451,8.55203 7.220291,11.230189 -2.199497,2.199497 -1.64715,2.522244 -20.35271,-11.892465 C 25.708949,50.901702 18.182172,45.417904 16.800001,44.721071 10.600588,41.595589 3.9875122,49.666783 8.8825028,54.384299 13.910703,59.230196 43.083907,84.11536 48.538179,88.211165 c 4.708959,3.536122 5.482242,6.00486 2.382923,7.607581 C 48.530604,97.05492 47.695077,96.609979 37.440001,88.639684 13.872887,70.323207 11.391455,69.179452 8.3127557,75.2142 c -2.2111608,4.334233 -1.5136322,5.127185 24.8072453,28.20094 4.928001,4.32005 11.696001,10.34095 15.040001,13.37979 26.228383,23.83485 39.849322,30.17744 58.025418,27.01953 z"
         id="path1" />
   </g>
</svg>